<mxfile host="app.diagrams.net" agent="Mozilla/5.0 (Windows NT 10.0; Win64; x64) AppleWebKit/537.36 (KHTML, like Gecko) Chrome/135.0.0.0 Safari/537.36 Edg/135.0.0.0" version="26.2.9">
  <diagram name="Page-1" id="FFxQSxTn1jKLqTAJzIlV">
    <mxGraphModel dx="1480" dy="766" grid="1" gridSize="10" guides="1" tooltips="1" connect="1" arrows="1" fold="1" page="1" pageScale="1" pageWidth="850" pageHeight="1100" math="0" shadow="0">
      <root>
        <mxCell id="0" />
        <mxCell id="1" parent="0" />
        <mxCell id="e2-gxXkmG6NjwEy1kKIV-1" value="User" style="shape=umlActor;verticalLabelPosition=bottom;verticalAlign=top;html=1;outlineConnect=0;" parent="1" vertex="1">
          <mxGeometry x="100" y="430" width="30" height="60" as="geometry" />
        </mxCell>
        <mxCell id="e2-gxXkmG6NjwEy1kKIV-2" value="Login" style="ellipse;whiteSpace=wrap;html=1;" parent="1" vertex="1">
          <mxGeometry x="280" y="310" width="120" height="80" as="geometry" />
        </mxCell>
        <mxCell id="e2-gxXkmG6NjwEy1kKIV-27" style="edgeStyle=orthogonalEdgeStyle;rounded=0;orthogonalLoop=1;jettySize=auto;html=1;exitX=1;exitY=0.5;exitDx=0;exitDy=0;dashed=1;" parent="1" source="e2-gxXkmG6NjwEy1kKIV-3" target="e2-gxXkmG6NjwEy1kKIV-19" edge="1">
          <mxGeometry relative="1" as="geometry" />
        </mxCell>
        <mxCell id="e2-gxXkmG6NjwEy1kKIV-28" value="&amp;lt;&amp;lt;include&amp;gt;&amp;gt;" style="edgeLabel;html=1;align=center;verticalAlign=middle;resizable=0;points=[];" parent="e2-gxXkmG6NjwEy1kKIV-27" vertex="1" connectable="0">
          <mxGeometry relative="1" as="geometry">
            <mxPoint as="offset" />
          </mxGeometry>
        </mxCell>
        <mxCell id="e2-gxXkmG6NjwEy1kKIV-3" value="Sign up" style="ellipse;whiteSpace=wrap;html=1;" parent="1" vertex="1">
          <mxGeometry x="280" y="520" width="120" height="80" as="geometry" />
        </mxCell>
        <mxCell id="e2-gxXkmG6NjwEy1kKIV-4" value="Sign in with Google" style="ellipse;whiteSpace=wrap;html=1;" parent="1" vertex="1">
          <mxGeometry x="520" y="220" width="120" height="80" as="geometry" />
        </mxCell>
        <mxCell id="e2-gxXkmG6NjwEy1kKIV-5" value="Sign in with&lt;div&gt;email and password&lt;/div&gt;" style="ellipse;whiteSpace=wrap;html=1;" parent="1" vertex="1">
          <mxGeometry x="520" y="310" width="120" height="80" as="geometry" />
        </mxCell>
        <mxCell id="e2-gxXkmG6NjwEy1kKIV-6" value="Reset password" style="ellipse;whiteSpace=wrap;html=1;" parent="1" vertex="1">
          <mxGeometry x="730" y="310" width="120" height="80" as="geometry" />
        </mxCell>
        <mxCell id="e2-gxXkmG6NjwEy1kKIV-8" value="" style="endArrow=classic;html=1;rounded=0;exitX=0;exitY=0.5;exitDx=0;exitDy=0;entryX=1;entryY=0;entryDx=0;entryDy=0;dashed=1;" parent="1" source="e2-gxXkmG6NjwEy1kKIV-4" target="e2-gxXkmG6NjwEy1kKIV-2" edge="1">
          <mxGeometry width="50" height="50" relative="1" as="geometry">
            <mxPoint x="320" y="440" as="sourcePoint" />
            <mxPoint x="370" y="390" as="targetPoint" />
          </mxGeometry>
        </mxCell>
        <mxCell id="e2-gxXkmG6NjwEy1kKIV-9" value="&amp;lt;&amp;lt;extend&amp;gt;&amp;gt;" style="text;html=1;align=center;verticalAlign=middle;resizable=0;points=[];autosize=1;strokeColor=none;fillColor=none;rotation=-30;" parent="1" vertex="1">
          <mxGeometry x="420" y="260" width="90" height="30" as="geometry" />
        </mxCell>
        <mxCell id="e2-gxXkmG6NjwEy1kKIV-13" value="" style="endArrow=classic;html=1;rounded=0;exitX=0;exitY=0.5;exitDx=0;exitDy=0;entryX=1;entryY=0.5;entryDx=0;entryDy=0;dashed=1;" parent="1" source="e2-gxXkmG6NjwEy1kKIV-6" target="e2-gxXkmG6NjwEy1kKIV-5" edge="1">
          <mxGeometry width="50" height="50" relative="1" as="geometry">
            <mxPoint x="320" y="440" as="sourcePoint" />
            <mxPoint x="370" y="390" as="targetPoint" />
          </mxGeometry>
        </mxCell>
        <mxCell id="e2-gxXkmG6NjwEy1kKIV-14" value="&amp;lt;&amp;lt;extend&amp;gt;&amp;gt;" style="text;html=1;align=center;verticalAlign=middle;resizable=0;points=[];autosize=1;strokeColor=none;fillColor=none;rotation=0;" parent="1" vertex="1">
          <mxGeometry x="640" y="320" width="90" height="30" as="geometry" />
        </mxCell>
        <mxCell id="e2-gxXkmG6NjwEy1kKIV-16" value="Send reset password&lt;div&gt;to user&#39;s email&lt;/div&gt;" style="ellipse;whiteSpace=wrap;html=1;" parent="1" vertex="1">
          <mxGeometry x="945" y="310" width="120" height="80" as="geometry" />
        </mxCell>
        <mxCell id="e2-gxXkmG6NjwEy1kKIV-17" value="" style="endArrow=classic;html=1;rounded=0;exitX=1;exitY=0.5;exitDx=0;exitDy=0;entryX=0;entryY=0.5;entryDx=0;entryDy=0;dashed=1;" parent="1" source="e2-gxXkmG6NjwEy1kKIV-6" target="e2-gxXkmG6NjwEy1kKIV-16" edge="1">
          <mxGeometry width="50" height="50" relative="1" as="geometry">
            <mxPoint x="560" y="440" as="sourcePoint" />
            <mxPoint x="610" y="390" as="targetPoint" />
          </mxGeometry>
        </mxCell>
        <mxCell id="e2-gxXkmG6NjwEy1kKIV-18" value="&amp;lt;&amp;lt;include&amp;gt;&amp;gt;" style="edgeLabel;html=1;align=center;verticalAlign=middle;resizable=0;points=[];" parent="e2-gxXkmG6NjwEy1kKIV-17" vertex="1" connectable="0">
          <mxGeometry x="-0.0213" y="-2" relative="1" as="geometry">
            <mxPoint as="offset" />
          </mxGeometry>
        </mxCell>
        <mxCell id="e2-gxXkmG6NjwEy1kKIV-29" style="edgeStyle=orthogonalEdgeStyle;rounded=0;orthogonalLoop=1;jettySize=auto;html=1;exitX=1;exitY=0.5;exitDx=0;exitDy=0;dashed=1;" parent="1" source="e2-gxXkmG6NjwEy1kKIV-19" target="e2-gxXkmG6NjwEy1kKIV-24" edge="1">
          <mxGeometry relative="1" as="geometry" />
        </mxCell>
        <mxCell id="e2-gxXkmG6NjwEy1kKIV-30" value="&amp;lt;&amp;lt;include&amp;gt;&amp;gt;" style="edgeLabel;html=1;align=center;verticalAlign=middle;resizable=0;points=[];" parent="e2-gxXkmG6NjwEy1kKIV-29" vertex="1" connectable="0">
          <mxGeometry relative="1" as="geometry">
            <mxPoint as="offset" />
          </mxGeometry>
        </mxCell>
        <mxCell id="e2-gxXkmG6NjwEy1kKIV-19" value="Verify email" style="ellipse;whiteSpace=wrap;html=1;" parent="1" vertex="1">
          <mxGeometry x="520" y="520" width="120" height="80" as="geometry" />
        </mxCell>
        <mxCell id="e2-gxXkmG6NjwEy1kKIV-24" value="enter all required information" style="ellipse;whiteSpace=wrap;html=1;" parent="1" vertex="1">
          <mxGeometry x="760" y="520" width="120" height="80" as="geometry" />
        </mxCell>
        <mxCell id="e2-gxXkmG6NjwEy1kKIV-33" value="" style="endArrow=none;html=1;rounded=0;exitX=1;exitY=0.3333333333333333;exitDx=0;exitDy=0;exitPerimeter=0;entryX=0;entryY=0.5;entryDx=0;entryDy=0;" parent="1" source="e2-gxXkmG6NjwEy1kKIV-1" target="e2-gxXkmG6NjwEy1kKIV-2" edge="1">
          <mxGeometry width="50" height="50" relative="1" as="geometry">
            <mxPoint x="460" y="500" as="sourcePoint" />
            <mxPoint x="510" y="450" as="targetPoint" />
          </mxGeometry>
        </mxCell>
        <mxCell id="e2-gxXkmG6NjwEy1kKIV-34" value="" style="endArrow=none;html=1;rounded=0;exitX=1;exitY=0.3333333333333333;exitDx=0;exitDy=0;exitPerimeter=0;entryX=0;entryY=0.5;entryDx=0;entryDy=0;" parent="1" source="e2-gxXkmG6NjwEy1kKIV-1" target="e2-gxXkmG6NjwEy1kKIV-3" edge="1">
          <mxGeometry width="50" height="50" relative="1" as="geometry">
            <mxPoint x="140" y="460" as="sourcePoint" />
            <mxPoint x="290" y="360" as="targetPoint" />
          </mxGeometry>
        </mxCell>
        <mxCell id="e2-gxXkmG6NjwEy1kKIV-37" value="Google service" style="shape=umlActor;verticalLabelPosition=bottom;verticalAlign=top;html=1;outlineConnect=0;" parent="1" vertex="1">
          <mxGeometry x="805" y="110" width="30" height="60" as="geometry" />
        </mxCell>
        <mxCell id="e2-gxXkmG6NjwEy1kKIV-38" value="" style="endArrow=none;html=1;rounded=0;entryX=0;entryY=0.3333333333333333;entryDx=0;entryDy=0;entryPerimeter=0;exitX=1;exitY=0.5;exitDx=0;exitDy=0;" parent="1" source="e2-gxXkmG6NjwEy1kKIV-4" target="e2-gxXkmG6NjwEy1kKIV-37" edge="1">
          <mxGeometry width="50" height="50" relative="1" as="geometry">
            <mxPoint x="900" y="343.95348837209303" as="sourcePoint" />
            <mxPoint x="650" y="360" as="targetPoint" />
          </mxGeometry>
        </mxCell>
        <mxCell id="e2-gxXkmG6NjwEy1kKIV-40" value="Email service" style="shape=umlActor;verticalLabelPosition=bottom;verticalAlign=top;html=1;outlineConnect=0;" parent="1" vertex="1">
          <mxGeometry x="990" y="660" width="30" height="60" as="geometry" />
        </mxCell>
        <mxCell id="e2-gxXkmG6NjwEy1kKIV-41" value="" style="endArrow=none;html=1;rounded=0;exitX=0;exitY=0.3333333333333333;exitDx=0;exitDy=0;exitPerimeter=0;entryX=1;entryY=1;entryDx=0;entryDy=0;" parent="1" source="e2-gxXkmG6NjwEy1kKIV-40" target="e2-gxXkmG6NjwEy1kKIV-19" edge="1">
          <mxGeometry width="50" height="50" relative="1" as="geometry">
            <mxPoint x="750" y="650" as="sourcePoint" />
            <mxPoint x="800" y="600" as="targetPoint" />
          </mxGeometry>
        </mxCell>
        <mxCell id="e2-gxXkmG6NjwEy1kKIV-42" value="" style="rounded=0;whiteSpace=wrap;html=1;fillColor=none;" parent="1" vertex="1">
          <mxGeometry x="270" y="210" width="810" height="460" as="geometry" />
        </mxCell>
        <mxCell id="e2-gxXkmG6NjwEy1kKIV-43" value="&lt;font style=&quot;font-size: 14px;&quot;&gt;User authentication&lt;/font&gt;" style="text;html=1;align=center;verticalAlign=middle;resizable=0;points=[];autosize=1;strokeColor=none;fillColor=none;" parent="1" vertex="1">
          <mxGeometry x="280" y="220" width="140" height="30" as="geometry" />
        </mxCell>
        <mxCell id="vveGd7yeCx1ycvQQT7TT-1" value="" style="endArrow=classic;html=1;rounded=0;exitX=1;exitY=0.5;exitDx=0;exitDy=0;entryX=0;entryY=0.5;entryDx=0;entryDy=0;dashed=1;" edge="1" parent="1" source="e2-gxXkmG6NjwEy1kKIV-2" target="e2-gxXkmG6NjwEy1kKIV-5">
          <mxGeometry width="50" height="50" relative="1" as="geometry">
            <mxPoint x="520" y="450" as="sourcePoint" />
            <mxPoint x="570" y="400" as="targetPoint" />
          </mxGeometry>
        </mxCell>
        <mxCell id="vveGd7yeCx1ycvQQT7TT-2" value="&amp;lt;&amp;lt;include&amp;gt;&amp;gt;" style="edgeLabel;html=1;align=center;verticalAlign=middle;resizable=0;points=[];" vertex="1" connectable="0" parent="vveGd7yeCx1ycvQQT7TT-1">
          <mxGeometry x="0.0233" y="-2" relative="1" as="geometry">
            <mxPoint as="offset" />
          </mxGeometry>
        </mxCell>
      </root>
    </mxGraphModel>
  </diagram>
</mxfile>
